<?xml version="1.0" encoding="UTF-8"?>
<svg version="1.1" viewBox="0 0 2000 1247" xmlns="http://www.w3.org/2000/svg">
<g transform="translate(-1.2121 .50486)">
<svg width="2e3" height="1247" data-background-color="#ffffff" viewBox="0 0 396 247" xmlns="http://www.w3.org/2000/svg" xmlns:xlink="http://www.w3.org/1999/xlink">
<g transform="translate(.24 -.1)">
<svg width="395.52" height="247.2" viewBox="0 0 395.52 247.2">
<svg/>
<svg width="395.52" height="247.2" viewBox="0 0 395.52 247.2">
<path d="m1.002 213.86v-53.46h36.662v53.46zm0-180.75h161.66v32.161h-125v21.535h-36.662zm225.46 136.98c6.726 2.968 13.72 5.479 20.983 7.531 7.231 2.021 14.841 3.568 22.83 4.642 7.957 1.105 16.452 1.658 25.483 1.657 10.863 0 20.115-0.71 27.756-2.131 7.642-1.453 13.862-3.426 18.662-5.921 4.831-2.495 8.352-5.479 10.563-8.952 1.297-2.067 2.207-4.24 2.732-6.52h38.337c-1.033 6.649-3.197 12.769-6.492 18.361-4.831 8.147-11.699 15.015-20.604 20.605-8.905 5.589-19.641 9.821-32.209 12.694-12.568 2.905-26.556 4.358-41.966 4.357-10.168 0-20.115-0.647-29.84-1.942-9.726-1.263-19.041-3.063-27.946-5.399-8.905-2.368-17.383-5.194-25.436-8.479-8.052-3.252-15.504-6.852-22.356-10.799l19.317-29.398h0.734c6.394 3.575 12.878 6.806 19.452 9.694zm-28.799-94.211c1.326-4.831 3.473-9.473 6.442-13.926 2.968-4.421 6.805-8.542 11.51-12.362 4.705-3.821 10.389-7.121 17.052-9.899 6.694-2.779 14.415-4.958 23.161-6.537 8.747-1.579 18.709-2.368 29.888-2.368 8.084 0 16.215 0.442 24.394 1.326 8.178 0.884 16.136 2.147 23.872 3.789 7.736 1.61 15.189 3.552 22.357 5.826s13.847 4.8 20.035 7.579l-16.104 29.603c-5.084-2.242-10.547-4.31-16.389-6.205-5.873-1.895-11.999-3.521-18.377-4.878-6.41-1.389-13.026-2.495-19.847-3.316s-13.783-1.232-20.888-1.231c-10.105 0-18.41 0.742-24.914 2.226-6.505 1.453-11.684 3.316-15.536 5.589-3.852 2.274-6.536 4.816-8.053 7.626-1.461 2.709-2.218 5.403-2.27 8.083h-38.237c0.258-3.659 0.893-7.301 1.904-10.925z" font-family="none" font-size="none" font-weight="none" stroke-dasharray="" stroke-miterlimit="10" text-anchor="none" style="mix-blend-mode:normal" data-fill-palette-color="tertiary" xmlns="http://www.w3.org/2000/svg"/>
<g transform="translate(0 92.774)">
<svg width="395.52" height="61.652" viewBox="0 0 395.52 61.65234288527499">
<svg width="395.52" height="61.652" viewBox="0 0 418.21491534569077 65.18995085110433">
<svg width="357.64" height="65.19" viewBox="0 0 357.64396655999997 65.18995085110433">
<g stroke="transparent" stroke-width="0">
<path rx="0%" d="m0 65.19v-65.19h357.64v65.19z" data-fill-palette-color="tertiary"/>
<path rx="0%" d="m3.156 62.034v-58.878h351.33v58.878z" fill="#fff" data-fill-palette-color="quaternary"/>
<path d="m9.469 55.721v-46.252h338.71v46.252z" data-fill-palette-color="tertiary"/>
</g>
<g transform="translate(18.938 18.938)">
<svg width="319.77" height="27.314" viewBox="0 0 319.76793311999995 27.313917411104327">
<svg width="319.77" height="27.314" viewBox="0 0 319.76793311999995 27.313917411104327">
<g>
<svg width="319.77" height="27.314" data-palette-color="#ffffff" viewBox="5.420000076293945 -40.47999954223633 480.1399841308594 41.02000045776367">
<path class="undefined-text-0" d="m5.42 0v-38.16h34.13v6.79h-26.39v9.98h22.41v6.38h-22.41v15.01h-7.74zm39.33-9.08q0-2.08 0.9-3.79 0.91-1.71 2.71-2.94 1.81-1.23 4.51-1.9 2.69-0.67 6.28-0.67 2.66 0 5.61 0.39 2.94 0.39 6.06 1.19-0.12-1.36-0.83-2.52t-1.96-2.01q-1.26-0.84-3.03-1.3-1.77-0.47-4.02-0.47-1.22 0-2.68 0.15-1.47 0.15-3.03 0.44t-3.09 0.73q-1.52 0.44-2.84 1.05l-2.2-5.93q1.64-0.59 3.5-1.07 1.87-0.49 3.83-0.85 1.95-0.35 3.9-0.55 1.95-0.19 3.79-0.19 8.08 0 12.01 4.12 3.93 4.13 3.93 12.65v12.55h-7.23v-2.71q-1.12 0.66-2.45 1.25-1.33 0.58-2.9 1.02-1.56 0.44-3.35 0.7-1.8 0.25-3.8 0.25-3.37 0-5.92-0.73t-4.26-2.03q-1.71-1.29-2.57-3.04-0.87-1.74-0.87-3.79zm7.62-0.25q0 0.71 0.36 1.36 0.37 0.65 1.17 1.15 0.81 0.5 2.07 0.8 1.25 0.31 3.04 0.31 1.9 0 3.68-0.34 1.79-0.35 3.32-0.91 1.54-0.56 2.79-1.29 1.24-0.73 2.07-1.52v-1.27q-1.66-0.46-3.28-0.78-1.63-0.31-3.1-0.5-1.48-0.18-2.79-0.25-1.3-0.08-2.28-0.08-2.03 0-3.37 0.27t-2.17 0.72-1.17 1.06-0.34 1.27zm33.29 5.96 3.13-5.47q2.93 1.76 6.44 2.59 3.52 0.83 7.21 0.83 2.49 0 4.15-0.34t2.66-0.88 1.41-1.22q0.42-0.68 0.42-1.39 0-1.03-0.89-1.76t-2.94-0.73q-0.96 0-2.05 0.12-1.1 0.12-2.31 0.26-1.21 0.13-2.52 0.25-1.3 0.12-2.65 0.12-2.93 0-4.99-0.63-2.06-0.64-3.36-1.73-1.29-1.1-1.87-2.6-0.59-1.51-0.59-3.24 0-2.2 1.02-4.05 1.03-1.86 2.93-3.21 1.91-1.36 4.61-2.11 2.69-0.76 6.01-0.76 1.74 0 3.63 0.21 1.89 0.2 3.72 0.55 1.83 0.34 3.52 0.79 1.68 0.45 2.98 0.96l-2.27 5.62q-2.76-1.03-5.51-1.62-2.75-0.6-5.65-0.6-2.03 0-3.43 0.3-1.4 0.31-2.28 0.81t-1.29 1.15q-0.4 0.64-0.4 1.35 0 0.51 0.21 0.93 0.21 0.41 0.68 0.72 0.48 0.3 1.25 0.46t1.89 0.16q1.03 0 2.17-0.12 1.15-0.12 2.4-0.26 1.24-0.13 2.57-0.25 1.33-0.13 2.72-0.13 2.59 0 4.53 0.61t3.21 1.71 1.91 2.59q0.63 1.49 0.63 3.25 0 2.27-1.05 4.22t-3.12 3.38q-2.08 1.43-5.17 2.24-3.08 0.8-7.14 0.8-2.49 0-4.81-0.3-2.32-0.31-4.42-0.83-2.1-0.53-3.94-1.24-1.84-0.7-3.36-1.51zm39.5 3.37v-40.48h7.23v13.87q2.27-1.25 5.07-1.98 2.79-0.73 5.87-0.73 3.56 0 6.41 1.05 2.84 1.05 4.82 3.01 1.98 1.97 3.04 4.78 1.06 2.8 1.06 6.32v14.16h-7.2v-13.87q0-2.05-0.66-3.74-0.66-1.7-1.93-2.92t-3.09-1.89q-1.82-0.68-4.11-0.68-2.76 0-5.13 0.88t-4.15 2.22v20h-7.23zm45.39-32.74q-1.08 0-1.94-0.3-0.87-0.31-1.48-0.83-0.61-0.53-0.94-1.23-0.33-0.69-0.33-1.47 0-0.81 0.33-1.5 0.33-0.7 0.94-1.21t1.48-0.82q0.86-0.31 1.94-0.31 1.1 0 1.96 0.31 0.87 0.31 1.48 0.82t0.94 1.21q0.33 0.69 0.33 1.5 0 0.78-0.33 1.47-0.33 0.7-0.94 1.23-0.61 0.52-1.48 0.83-0.86 0.3-1.96 0.3zm-3.62 32.74v-28.81h7.23v28.81h-7.23zm14.75-14.4q0-3.1 1.25-5.81 1.26-2.71 3.59-4.74t5.64-3.2 7.44-1.17q4.12 0 7.43 1.17t5.64 3.2 3.59 4.74 1.26 5.81-1.26 5.81-3.59 4.73q-2.33 2.03-5.64 3.2t-7.43 1.17q-4.13 0-7.44-1.17t-5.64-3.2q-2.33-2.02-3.59-4.73-1.25-2.71-1.25-5.81zm7.59 0q0 1.73 0.7 3.28 0.69 1.55 2.02 2.73 1.33 1.19 3.25 1.88 1.92 0.7 4.36 0.7t4.35-0.7q1.92-0.69 3.25-1.88 1.33-1.18 2.03-2.73 0.69-1.55 0.69-3.28 0-1.74-0.69-3.3-0.7-1.56-2.03-2.75-1.33-1.18-3.25-1.88-1.91-0.69-4.35-0.69t-4.36 0.69q-1.92 0.7-3.25 1.88-1.33 1.19-2.02 2.75-0.7 1.56-0.7 3.3zm35.54 14.4v-28.81h7.23v2.44q2.88-1.63 5.51-2.29 2.62-0.66 5.14-0.66 3.29 0 6.1 0.96 2.81 0.97 4.86 2.87 2.05 1.91 3.21 4.75t1.16 6.58v14.16h-7.2v-12.99q0-2.37-0.68-4.23-0.67-1.87-1.93-3.15-1.25-1.29-3.05-1.96-1.79-0.67-4.01-0.67-1.17 0-2.41 0.25-1.23 0.24-2.41 0.69-1.19 0.45-2.29 1.12-1.1 0.68-2 1.53v19.41h-7.23zm57.23-5.08 4.12-6.27q2.08 1.17 4.21 2.11 2.14 0.94 4.43 1.59 2.3 0.64 4.83 0.98 2.52 0.35 5.38 0.35 3.44 0 5.86-0.45 2.42-0.46 3.94-1.25 1.53-0.79 2.22-1.89 0.7-1.1 0.7-2.39 0-2.08-1.73-3.29-1.74-1.21-5.35-1.21-1.59 0-3.35 0.21-1.75 0.21-3.55 0.45-1.79 0.25-3.54 0.45-1.74 0.21-3.28 0.21-2.57 0-4.92-0.66-2.36-0.66-4.18-1.98-1.81-1.31-2.89-3.29-1.07-1.98-1.07-4.62 0-1.56 0.42-3.1 0.43-1.53 1.37-2.94 0.94-1.4 2.43-2.61t3.6-2.09 4.88-1.38q2.78-0.5 6.32-0.5 2.56 0 5.15 0.28 2.58 0.28 5.04 0.8 2.45 0.51 4.72 1.23t4.23 1.6l-3.4 6.25q-1.61-0.71-3.46-1.31-1.86-0.6-3.89-1.03-2.02-0.44-4.18-0.7t-4.41-0.26q-3.2 0-5.26 0.47-2.06 0.46-3.28 1.18-1.23 0.72-1.7 1.61-0.48 0.89-0.48 1.77 0 1.71 1.54 2.8 1.54 1.08 4.69 1.08 1.27 0 2.92-0.18 1.64-0.18 3.46-0.4t3.71-0.4q1.9-0.19 3.68-0.19 3.37 0 5.97 0.76t4.35 2.16q1.76 1.4 2.67 3.39 0.9 1.99 0.9 4.46 0 3.29-1.53 5.87-1.52 2.58-4.34 4.35t-6.8 2.68q-3.98 0.92-8.86 0.92-3.23 0-6.3-0.41-3.08-0.4-5.9-1.14-2.82-0.75-5.37-1.79-2.55-1.03-4.72-2.28zm55.78 5.08v-23.39h-6.96v-5.42h6.96v-8.96h7.23v8.96h6.95v5.42h-6.95v23.39h-7.23zm20.6 0v-28.81h7.23v4.15q2.39-1.78 5.05-3.07 2.66-1.3 5.3-1.98l2.12 6.61q-4.17 0.42-7.33 1.87t-5.14 4.09v17.14h-7.23zm23.71-14.5q0-2.93 1.19-5.6 1.2-2.68 3.44-4.73 2.25-2.05 5.51-3.27t7.41-1.22q4.13 0 7.43 1.23 3.31 1.23 5.62 3.38t3.54 5.06q1.23 2.9 1.23 6.22 0 0.42-0.01 0.89-0.01 0.48-0.06 0.87h-27.25q0.47 1.29 1.5 2.37 1.04 1.07 2.6 1.85 1.57 0.78 3.62 1.21t4.54 0.43 4.95-0.53q2.47-0.52 4.72-1.33l2.44 5.52q-1.42 0.66-2.87 1.16t-3.03 0.83q-1.57 0.33-3.29 0.5-1.73 0.17-3.63 0.17-4.86 0-8.52-1.17t-6.13-3.2q-2.46-2.02-3.71-4.76-1.24-2.73-1.24-5.88zm8.05-2.81h19.66q-0.39-1.2-1.21-2.23-0.82-1.04-2.04-1.81t-2.83-1.21-3.54-0.44q-2.05 0-3.74 0.47-1.68 0.46-2.95 1.24t-2.11 1.81q-0.85 1.02-1.24 2.17zm33.72 2.81q0-2.93 1.19-5.6 1.2-2.68 3.44-4.73 2.25-2.05 5.51-3.27t7.41-1.22q4.13 0 7.43 1.23 3.31 1.23 5.62 3.38t3.54 5.06q1.23 2.9 1.23 6.22 0 0.42-0.01 0.89-0.01 0.48-0.06 0.87h-27.25q0.47 1.29 1.5 2.37 1.04 1.07 2.6 1.85 1.57 0.78 3.62 1.21t4.54 0.43 4.95-0.53q2.47-0.52 4.72-1.33l2.44 5.52q-1.42 0.66-2.87 1.16t-3.03 0.83q-1.57 0.33-3.29 0.5-1.73 0.17-3.63 0.17-4.86 0-8.52-1.17t-6.13-3.2q-2.46-2.02-3.71-4.76-1.24-2.73-1.24-5.88zm8.05-2.81h19.66q-0.39-1.2-1.21-2.23-0.82-1.04-2.04-1.81t-2.83-1.21-3.54-0.44q-2.05 0-3.74 0.47-1.68 0.46-2.95 1.24t-2.11 1.81q-0.85 1.02-1.24 2.17zm39.43 17.31v-23.39h-6.96v-5.42h6.96v-8.96h7.23v8.96h6.95v5.42h-6.95v23.39h-7.23z" fill="#fff" data-fill-palette-color="quaternary"/>
</svg>
</g>
</svg>
</svg>
</g>
</svg>
<g transform="translate(363.96 13.721)">
<svg width="54.258" height="37.748" viewBox="0 0 54.25827654569078 37.74783386214619">
<svg class="icon-icon-0" width="54.258" height="37.748" data-fill-palette-color="accent" version="1.1" viewBox="1.9999980926513672 15.995015144348145 91.99999237060547 64.00498962402344" xmlns="http://www.w3.org/2000/svg" xmlns:xlink="http://www.w3.org/1999/xlink">
<path d="m48 51.836c-7.72 0-14-6.276-14-14s6.28-14 14-14 14 6.28 14 14-6.28 14-14 14z" data-fill-palette-color="accent"/>
<path d="m89.852 17.252c-0.332-0.816-1.128-1.328-2.036-1.244-9.852 0.896-18.992 3.712-27.792 8.536 3.644 3.292 5.976 8.008 5.976 13.296s-2.332 10-5.972 13.3c8.804 4.812 17.94 7.632 27.792 8.524 0.064 8e-3 0.124 8e-3 0.18 8e-3 0.808 0 1.548-0.492 1.852-1.252 3.944-9.76 4.148-18.856 4.148-20.584 0-1.724-0.2-10.82-4.148-20.584z" data-fill-palette-color="accent"/>
<path d="m30 37.836c0-5.284 2.332-10 5.976-13.296-8.8-4.824-17.94-7.64-27.792-8.536-0.924-0.084-1.708 0.428-2.036 1.248-3.948 9.764-4.148 18.86-4.148 20.58 0 1.724 0.2 10.824 4.148 20.584 0.308 0.76 1.044 1.252 1.852 1.252 0.06 0 0.12 0 0.18-8e-3 9.848-0.9 18.988-3.716 27.792-8.532-3.64-3.292-5.972-8.004-5.972-13.292z" data-fill-palette-color="accent"/>
<path d="m56.416 53.656c-2.524 1.344-5.36 2.18-8.416 2.18s-5.892-0.836-8.416-2.18c-6.06 3.492-12.26 6.116-18.724 7.812 3.1 7.44 9.396 15.452 14.116 18.252 0.312 0.188 0.668 0.28 1.02 0.28 0.236 0 0.472-0.04 0.7-0.124 0.568-0.216 1.004-0.672 1.196-1.244 0.54-1.616 1.88-3.952 3.432-6.66 2.168-3.784 4.84-8.496 6.672-13.604 1.832 5.108 4.504 9.82 6.672 13.604 1.556 2.704 2.892 5.044 3.428 6.66 0.196 0.572 0.632 1.028 1.196 1.244 0.228 0.08 0.464 0.124 0.7 0.124 0.352 0 0.704-0.092 1.016-0.276 4.724-2.8 11.016-10.812 14.116-18.252-6.456-1.704-12.656-4.324-18.708-7.816z" data-fill-palette-color="accent"/>
</svg>
</svg>
</g>
</svg>
</svg>
</g>
</svg>
</svg>
<rect width="395.52" height="247.2" fill="none" visibility="hidden"/>
</g>
</svg>
</g>
</svg>
