<svg xmlns="http://www.w3.org/2000/svg" version="1.1" xmlns:xlink="http://www.w3.org/1999/xlink" xmlns:svgjs="http://svgjs.dev/svgjs" width="128" height="128" viewBox="0 0 128 128"><g transform="matrix(0.44782608695652176,0,0,0.44782608695652176,35.33913043478261,12.5)"><svg viewBox="0 0 125 225" data-background-color="#282634" preserveAspectRatio="xMidYMid meet" height="230" width="128" xmlns="http://www.w3.org/2000/svg" xmlns:xlink="http://www.w3.org/1999/xlink"><g id="tight-bounds" transform="matrix(1,0,0,1,-1.4210854715202004e-14,0)"><svg viewBox="0 0 125 225" height="225" width="125"><g><svg></svg></g><g><svg viewBox="0 0 125 225" height="225" width="125"><g><path d="M33.402 55.033c0-0.436 0.218-0.872 0.654-0.872 0.436 0 0.872 0.218 0.872 0.872 0.218 0 0.654 0 0.873-0.218 0.872 0 1.745-0.218 2.399 0 0.654 0.218 1.09 0.218 1.744 0.436 0.654 0.218 1.09 0 1.527-0.218 0.872-0.218 1.527-0.654 2.399-0.872 0.436-0.218 0.654-0.218 1.091-0.218 0.436-0.218 0.872-0.218 1.526-0.437 1.09-0.218 2.181-0.436 3.053-0.872 0.872-0.436 1.745-0.436 2.618-0.654 0.436 0 0.654-0.218 1.09-0.436 0.218 0 0.218-0.218 0.436-0.437 0.436-0.218 0.654-0.436 1.091-0.218 0.218 0.218 0.654 0.218 0.872 0h0.218c1.309 0 2.617-0.218 4.144 0 0.218 0 0.436 0 0.436 0 0.654-0.436 1.527-0.436 2.399-0.436 0.218 0 0.654 0 0.872 0h0.218c0.872 0 1.745 0 2.399 0.218 0.654 0 1.09 0.218 1.745 0.436 0.654 0 1.09 0 1.745 0.218 0.436 0 0.872 0 1.308 0 0.218 0 0.436 0 0.437 0 0.872 0.218 1.745 0.218 2.617 0.219 0.654 0.218 1.309 0.436 2.181 0.436 0.218 0 0.436 0 0.654 0 0.218 0 0.436 0.218 0.654 0.218l0.218 0.218c0.872 0 1.527 0.436 2.399 0.436 0.218 0 0.654 0 0.873 0.218 0.654 0.436 1.527 0.654 2.399 0.654 0.436 0 0.654 0.218 0.872 0.437 0.654 0.218 1.09 0.436 1.745 0.654 0.436 0.218 0.872 0 1.308 0.218 0.654 0.218 1.527 0.436 2.181 1.09 0.436 0.436 0.872 0.436 1.527 0.873 0.218 0 0.436 0.218 0.654 0.436 0.654 0.436 1.309 0.872 1.963 1.09 0.218 0 0.436 0.218 0.654 0.219 0.654 0.436 1.309 1.09 2.181 1.526 0.436 0.218 0.654 0.436 1.091 0.654h0.218c0.654 0.654 1.527 1.09 2.181 1.745 0.654 0.654 1.09 1.09 1.962 1.527 0 0 0 0 0 0.218 0.218 0.436 0.436 0.654 0.873 0.872 0.436 0.218 0.654 0.436 0.872 0.655 0.654 0.436 1.309 0.872 1.745 1.308 0.218 0.218 0.436 0.436 0.872 0.872 0.218 0.218 0.436 0.436 0.654 0.437 0.872 0.218 1.309 0.872 1.963 1.526 0.436 0.436 1.09 1.09 1.527 1.527 0.218 0.218 0.436 0.654 0.654 1.09 0.436 1.309 1.09 2.617 1.745 3.708 0 0 0 0.218 0.218 0.436v0.218c0.436 0.436 0.654 1.09 1.09 1.527 0.218 0.218 0.218 0.436 0.437 0.654 0.436 0.654 0.654 1.527 1.09 2.181 0.654 1.09 1.09 2.181 1.527 3.271v0.218c0.218 0.436 0.436 0.872 0.654 1.527 0 0.436 0.436 0.872 0.654 1.527 0.218 1.09 0.872 2.181 1.091 3.489 0 0.218 0.218 0.436 0.218 0.873 0.218 0.654 0.436 1.309 0.654 1.962 0 0.218 0.218 0.436 0.436 0.655 0.436 0.436 0.436 0.872 0.436 1.308-0.218 0.872 0 1.745 0.219 2.617 0 0.218 0 0.436 0 0.873 0.218 0.872 0.436 1.963 0.436 2.835 0 0.218 0 0.654 0 0.872 0 0.654 0.218 1.309 0.654 1.963 0 0.218 0.218 0.218 0.218 0.218 0.218 0.218 0.436 0.654 0.654 0.872 0.218 0.218 0.218 0.218 0.437 0.437 0.436 0.436 0.654 0.872 0.654 1.526 0 0.218-0.218 0.654-0.218 0.873 0 0.218 0 0.654 0.218 0.872 0.218 0.218 0.218 0.436 0.218 0.654 0 0.218-0.218 0.436-0.436 0.436v0c-0.218 0.654-1.09 0.872-1.309 1.527-0.218 0.872-0.436 1.745-0.654 2.617-0.218 0.654-0.218 1.09-0.218 1.745 0 0.654-0.218 1.09-0.218 1.745-0.218 0.872-0.436 1.745-0.655 2.617 0 0.436-0.218 0.872-0.218 1.308 0.218 0.218 0.436 0.436 0.655 0.436 0.436 0.436 0.872 0.872 1.308 1.309 0.218 0.218 0.218 0.436 0 0.436-0.218 0.218-0.436 0.218-0.654 0.218-0.218-0.218-0.654-0.436-0.872-0.436-0.218-0.218-0.654-0.436-1.091-0.218 0 0.436-0.218 0.872-0.218 1.09-0.218 0.436-0.436 1.09-0.436 1.527-0.218 0.872-0.654 1.527-0.873 2.399-0.436 1.09-0.872 1.963-1.308 2.835-0.218 0.436-0.436 0.872-0.654 1.309v0c0 0.654-0.654 1.309-0.873 1.963-0.436 0.872-0.872 1.745-1.308 2.835-0.218 0.436-0.436 0.872-0.655 1.09-0.436 1.09-0.872 1.963-1.526 2.836-0.436 0.654-0.872 1.09-1.309 1.308-0.436 0.436-0.872 0.872-1.308 1.309-0.218 0.218-0.436 0.436-0.655 0.654-0.218 0.218-0.218 0.218-0.436 0.436-0.436 0.654-1.09 1.09-1.526 1.745-0.436 0.436-0.654 0.872-1.309 1.308-0.436 0.436-0.872 1.09-1.527 1.309-0.218 0.218-0.436 0.654-0.654 0.872-0.218 0.218-0.436 0.654-0.654 0.873 0 0.436 0.218 0.872 0.218 1.09 0 0.654-0.654 0.872-1.09 0.436-0.654-0.436-0.654-0.436-1.309 0-0.654 0.436-1.309 1.09-2.181 1.309-0.218 0-0.218 0.218-0.436 0.218-0.436 0.218-0.654 0.654-1.091 0.872-0.436 0.436-1.09 0.654-1.526 1.091-0.218 0.218-0.436 0.218-0.655 0.436-0.654 0.436-1.309 0.654-1.962 1.308-0.218 0.218-0.436 0.218-0.655 0.437 0 0.218 0 0.218 0 0.436 0 0.436-0.436 0.872-1.09 0.654-0.654-0.218-1.09 0-1.745 0-0.654 0.218-1.309 0.654-1.963 0.872-0.218 0-0.436 0.218-0.654 0.437-0.654 0.436-1.309 0.654-1.963 0.872-0.436 0-0.872 0.436-1.308 0.436-0.218 0-0.436 0.218-0.655 0.218h-0.218c-0.872 0.654-1.745 1.09-2.617 1.745-0.218 0-0.218 0.218-0.436 0.436-0.218 0.436-0.436 0.654-0.872 0.654-1.09 0-1.527 0.872-1.309 1.745 0 0.218 0.218 0.436 0.218 0.654 0.218 0.436 0 0.872-0.218 1.091-0.218 0.218-0.872 0.218-1.09-0.218-0.436-0.436-0.654-0.872-0.873-1.527-0.218-0.436-0.654-0.872-1.09-1.09-0.436-0.218-0.872-0.218-1.309 0-0.218 0-0.218 0.218-0.436 0.218-0.436 0.436-1.09 0.654-1.745 0.436-0.218 0-0.654 0-0.654 0.218-0.218 0.218-0.218 0.654 0 0.872 0.436 0.436 0.218 0.872 0.218 1.527 0 0.872-0.654 1.309-1.526 0.872-0.218-0.218-0.436-0.218-0.655-0.436-0.218 0-0.218-0.218-0.218-0.436-0.218-0.218-0.218-0.654-0.436-1.09-0.436 0.218-0.872 0.218-1.308 0.436-0.218 0-0.436 0.218-0.655 0.218-0.654 0-0.872 0-1.09-0.654-0.218-0.654-0.654-0.654-1.091-0.873-0.872-0.218-1.963-0.218-2.835-0.654h-0.218c-0.872-0.654-1.745-0.654-2.835-0.654-0.654 0-1.309 0.218-1.963 0.218-0.654 0-1.09 0.218-1.527 0.654-0.218 0.218-0.436 0.436-0.654 0.436-0.218-0.218-0.218-0.436-0.436-0.654v-0.218c0-0.218-0.218-0.436-0.436-0.218-0.436 0.218-0.872-0.218-1.309-0.436-0.218-0.218-0.654-0.654-0.654-1.091-0.218-0.218-0.436-0.436-0.654-0.436-0.436 0-1.09-0.218-1.527-0.218-0.218 0-0.436 0-0.436-0.218-0.218-0.218-0.436-0.218-0.872-0.218-0.218 0-0.218-0.218-0.437-0.218 0.436 0.436 0.654 0.872 0.873 1.308 0 0.218 0.218 0.218 0.218 0.436 0.218 0.436 0 0.654-0.654 0.655-0.436 0-0.436 0-0.655 0.218 0 0.436 0 0.654 0 1.09 0 0.218 0 0.436-0.436 0.654 0 0-0.218 0-0.218 0.219-0.218 0.218-0.218 0.436 0 0.654 0.654 0.436 1.09 0.654 1.745 0.872 0.654 0 0.654 0.436 0.872 0.872 0.218 0.436 0 0.654-0.218 1.091-0.436 0.436-0.872 0.872-1.309 1.309-0.654 0.218-1.09 0.872-1.744 0.872-0.436 0-0.872-0.218-1.091-0.654-0.218-1.09-0.218-1.963 0.218-3.054 0-0.218 0.218-0.436 0-0.654-1.963 0-1.963-0.436-1.962-0.654 0-0.436 0.218-0.654 0.218-1.091 0.218-0.436 0-0.654-0.655-0.872-0.218 0-0.436 0-0.654 0-0.218 0-0.218-0.218-0.654-0.218 0.436-0.218 0.654-0.218 1.09-0.436-0.218-0.872-0.436-1.527-1.09-1.963-0.218-0.218-0.436-0.436-0.436-0.872 0-0.654-0.436-1.09-0.655-1.527-0.436-0.654-1.309-0.872-1.962-0.872-0.654-0.218-1.09-0.218-1.745-0.437-0.654-0.218-1.309-0.872-1.963-1.09-0.218-0.218-0.436-0.436-0.872-0.654-0.872-0.436-1.527-1.09-2.181-1.745-0.436-0.218-0.654-0.654-1.091-0.872-0.436-0.436-0.654-0.872-1.09-1.091-0.436-0.436-0.872-0.872-1.527-1.309-0.654-0.436-1.09-1.09-1.745-1.744-0.436-0.654-1.09-1.09-1.744-1.527-0.218 0-0.436 0-0.655 0-0.218 0-0.436 0.218-0.654 0.218-0.654 0.218-1.09 0.654-1.745 0.873 0.218-0.218 0.218-0.218 0-0.655-0.218-0.218-0.436-0.436-0.654-0.436-0.436 0-0.872 0-1.308 0-0.872 0-1.745 0.218-2.617 0.218-0.654 0-1.527 0.218-2.181 0.436 0.218 0.436 0.218 0.654 0.436 1.091-0.436 0.218-0.872 0.218-1.309 0.218-0.218 0-0.654 0.218-0.872 0.436-0.218 0-0.218 0.218-0.436 0-0.436-0.218-0.872 0-1.309 0.218h-0.218c0 0 0-0.218 0.218-0.218 0.218-0.218 0.436-0.436 0.654-0.654 0.218-0.218 0.436-0.218 0.873-0.436-0.218-0.218-0.218-0.436-0.218-0.437-0.218-0.218-0.436-0.218-0.655 0-0.218 0.218-0.436 0.436-0.654 0.655-0.218 0.218-0.436 0.218-0.654 0-0.218-0.218-0.218-0.436 0-0.655 0-0.218 0.218-0.436 0.436-0.654 0.218-0.218 0.218-0.436 0.436-0.654-0.436-0.436-0.654-0.872-1.09-1.091-0.654-0.436-1.309-1.09-1.745-1.744-0.436-0.872-1.09-1.527-1.963-1.963-0.218-0.218-0.436-0.436-0.654-0.654-0.218-0.218-0.218-0.218-0.436-0.437-0.654 0.218-1.09 0.654-1.745 0.873-0.218 0-0.218 0.218-0.436 0.436-0.218 0.436-0.654 0.436-1.091 0.436-0.218 0-0.436-0.218-0.218-0.436 0.218-0.436 0.436-0.872 1.091-0.654 0 0 0.218 0 0.218-0.218 0.436-0.436 0.872-1.09 1.527-1.527-0.218-0.654-0.654-1.09-0.873-1.527-0.218-0.218-0.218-0.436-0.218-0.872 0-0.218 0-0.218-0.218-0.436 0 0-0.218 0-0.436 0.218-0.218 0.218-0.654 0.436-1.091 0 0-0.218 0-0.436 0.218-0.654l0.219-0.218c0.654-0.218 0.654-0.872 0.654-1.527v-0.218c-0.218-0.436-0.218-0.654 0.218-1.091 0.654-0.436 1.309-1.309 1.527-1.962 0.218-0.436 0.654-0.654 1.09-1.091 0.436-0.436 0.872-0.872 1.09-1.527h0.219c0.872 0.218 1.09-0.436 1.526-1.09 0-0.218 0-0.436 0.218-0.436 0.436-0.436 0.436-0.872 0.218-1.527 0-0.218-0.218-0.654-0.218-0.872 0-0.218 0-0.218-0.218-0.436-0.654-0.436-0.654-0.872 0-1.309 0.436-0.218 0.436-0.654 0.654-0.872 0.218-0.436 0.218-0.872 0.219-1.527-0.218-0.654-0.218-1.527-0.437-2.181-0.218-0.872-0.436-1.963-0.654-2.835 0-0.218 0-0.218 0-0.436 0-0.654 0-1.09-0.218-1.745-0.218-0.218-0.218-0.654-0.218-0.872-0.218-0.654-0.436-1.09-1.091-1.309-0.654-0.436-1.527-0.654-2.18-1.09-0.218-0.218-0.436 0-0.655 0.218-0.218 0.436-0.654 0.872-0.872 1.308-0.218 0.218-0.436 0.654-0.654 1.091-0.436 0.436-1.309 0.872-1.963 0.218-0.218-0.436-0.436-0.654 0-1.091 0.436-0.654 0.872-1.309 1.526-1.744 0.218-0.218 0.436-0.654 0.655-0.873 0.218-0.436 0.218-0.872 0.218-1.308-0.218-0.872-0.436-1.745-0.436-2.835 0-1.09 0-1.963 0.218-3.054 0.218-0.436 0.218-1.09 0.436-1.526 0-0.218 0.218-0.654 0.436-0.873 0.436-0.436 0.872-0.872 1.091-1.526 0.218-0.654 0.654-1.309 0.654-1.963 0-0.218 0.218-0.436 0.218-0.654 0-0.218 0.218-0.654 0.218-0.873-0.218-0.654 0-1.09 0.218-1.526 0.218-0.436 0.436-1.09 0.654-1.527 0.436-0.872 0.436-1.963 1.309-2.835 0.218-0.436 0.436-0.872 0.654-1.309 0.218-0.872 0.654-1.527 1.091-2.181 0.218-0.218 0.218-0.218 0.218-0.436 0.218-0.654 0.654-1.309 1.09-1.963 0.436-0.654 0.436-1.309 0.654-1.962 0-0.218 0-0.436 0.219-0.655 0.654-0.654 0.436-1.527 0.218-2.399-0.436-1.09-0.654-2.181-0.437-3.271 0-0.218 0-0.436 0.219-0.436 0.218-0.436 0.218-0.654 0.436-1.091v-0.218c0.436-0.436 0.872-1.09 1.526-1.308 0.872-0.436 1.745-0.654 2.836-0.873 0.872 0 1.745-0.436 2.399-1.308 0-0.218 0.218-0.218 0.436-0.437l0.218-0.218c0.218-0.436 0.436-0.654 0.654-0.872 0.436-0.436 0.872-1.09 1.309-1.527 0.436-0.436 0.872-1.09 1.526-1.744l0.218-0.218c0.436-0.436 0.872-0.872 1.309-1.091 0.436-0.436 0.872-0.872 1.308-1.308 0.436-0.436 0.654-0.872 1.091-1.309 0.436-0.218 0.872-0.654 1.308-1.09 0.436-0.436 0.872-0.872 1.091-1.091 0.436-0.436 1.09-0.872 1.527-1.09 0.436-0.218 0.872-0.436 1.09-1.091 0.218-0.654 0.436-1.09 0.654-1.745 0-0.436 0.218-0.872 0.436-1.308 0.218 0 0.436 0 0.873-0.218-0.218-0.218-0.436-0.218-0.436-0.436 0-0.218 0.218-0.436 0.218-0.437 0-0.218 0.218-0.436 0.218-0.654 0 0 0.218 0 0.218-0.218 0 0 0.218 0 0.218-0.218-0.436 0.218-0.654 0-0.872-0.218 0.218 0.218 0.436 0.218 0.872 0.436 0 0 0.218 0 0.218-0.218 0-0.218 0-0.436 0-0.436 0 0-0.218 0-0.436 0-0.218 0-0.436 0.218-0.654 0.218zM71.131 157.536c0-0.218-0.218-0.218-0.218-0.436-0.218-0.436 0-0.654 0.218-0.873 0.218-0.218 0.436-0.218 0.873-0.218 0.436 0.218 0.654 0.436 0.654 0.873 0 0.218 0 0.654 0 0.872 0.218 0.872 0.218 0.872 1.091 0.872 0.436 0 0.872 0 1.308 0 0.872-0.218 1.745-0.654 2.617-0.872 0.872-0.218 1.745-0.436 2.617-0.654 0.218 0 0.436 0 0.873 0 0.872 0.218 1.527 0 2.181-0.437 0.218-0.218 0.654-0.218 0.872-0.436 0.436-0.218 0.872-0.218 1.308-0.436 1.09-0.654 2.181-1.09 3.054-1.745 0.654-0.436 1.309-0.872 1.963-1.308 0.654-0.436 1.309-0.872 1.962-1.309 0.436-0.218 1.09-0.654 1.527-1.09 0.872-0.654 1.527-1.309 2.399-1.745 0.436-0.218 0.654-0.436 0.872-0.654 0.436-0.218 0.654-0.654 1.091-0.873 0.218-0.218 0.436-0.436 0.872-0.654 0.218-0.218 0.218-0.218 0.218-0.436 0.654-0.436 1.309-1.309 1.745-1.963 0.436-0.436 0.872-0.872 1.309-1.526 0.654-0.654 1.09-1.527 1.744-2.399 0.436-0.436 0.872-1.09 1.091-1.527 0.436-0.872 0.872-1.745 1.526-2.399v-0.218c0.436-0.872 0.872-1.745 1.309-2.617 0.654-1.09 1.09-2.399 1.745-3.49 0.218-0.436 0.436-0.872 0.436-1.308 0.436-0.872 0.654-1.745 0.872-2.617 0-0.218 0-0.218 0.218-0.437 0.654-1.309 1.09-2.617 1.309-4.143 0.218-0.872 0.436-1.745 0.654-2.617 0.436-1.309 0.436-2.399 0.654-3.708 0.218-0.872 0.218-1.963 0.218-2.835 0.218-1.309 0.218-2.835 0-4.144 0-1.09-0.218-2.399-0.218-3.489 0-1.09-0.218-1.963-0.436-3.054-0.218-1.09-0.436-1.963-0.654-3.053-0.436-0.872-0.654-1.745-0.872-2.835-0.218-0.872-0.654-1.527-0.655-2.399 0-0.654-0.218-1.309-0.872-1.527-0.654-0.218-1.09-0.436-1.745-0.872-1.309-0.872-1.963-1.963-1.744-3.271 0-0.654 0.218-1.527 0.436-2.181 0.218-0.654 0.436-1.309 0-1.745-0.218-0.654-0.654-1.09-0.873-1.527-0.436-0.654-0.654-1.09-1.09-1.526-0.436-0.872-0.872-1.745-1.527-2.399-0.872-1.09-1.527-2.181-2.617-3.054l-0.218-0.218c-0.654-0.872-1.309-1.745-2.181-2.399-0.436-0.436-0.872-0.872-1.308-1.09-0.218-0.218-0.436-0.436-0.873-0.654-0.654-0.436-1.309-0.654-1.745-1.091-0.654-0.654-1.527-1.09-2.18-1.527 0 0-0.218 0-0.219-0.218-0.872-0.436-1.527-0.654-2.399-1.09-0.872-0.436-1.745-0.654-2.617-0.654-0.218 0-0.218 0-0.436 0-0.218-0.218-0.654-0.218-0.872-0.218-0.218 0-0.218 0-0.436 0-0.436-0.218-1.09 0-1.527 0-0.872 0.218-1.745 0.218-2.617-0.219-1.09-0.436-1.963-0.872-2.835-1.308-0.654-0.436-1.09-0.872-1.745-1.309-1.309-1.09-2.617-2.399-4.144-3.489 0.218-1.09-0.218-1.309-1.09-1.309-0.436 0-0.872 0.218-1.309 0.437-0.218 0.218-0.218 0.218-0.436 0.436-0.654 0.436-1.09 1.09-1.745 1.526-1.09 0.654-1.527 0.436-2.399 0-0.218-0.218-0.436-0.436-0.654-0.654-0.436-0.436-0.872-1.09-1.09-1.527-0.436-0.872-1.309-0.872-2.181-0.872-0.436 0-1.09 0.218-1.527 0.218-0.872 0-1.745 0.436-2.181 1.091-0.436 0.654-0.872 1.309-1.526 1.962-0.218 0.218-0.654 0.436-0.873 0.873-0.436 0.436-0.872 0.436-1.308 0-0.218-0.218-0.436-0.218-0.655-0.436-0.218 0.218-0.436 0.436-0.436 0.654-0.218 0.436-0.436 0.872-0.654 1.527-0.218 0.654-0.654 1.309-1.091 1.744-0.218 0.218-0.218 0.218-0.436 0.436-0.218 0.436-0.872 0.654-1.308 0.655-0.436 0.436-0.872 1.09-1.091 1.526-0.218 0.436-0.436 0.872-0.654 1.527-0.218 0.218-0.218 0.654-0.436 0.872-0.218 0.436-0.218 0.654-0.218 1.091 0.218 0.654-0.218 0.872-0.873 1.09-0.436 0-0.436 0-0.654 0.436 0 0.654 0.218 1.09 0.436 1.745 0.218 0.218 0.436 0.654 0.436 0.873 0 0.436 0.218 0.654 0.655 0.872 0.218 0.218 0.436 0.436 0.654 0.436 0.218 0 0.218 0.218 0.436 0.218 0.218 0.218 0.436 0 0.436-0.218 0.218-0.654 0.436-1.309 0.437-1.963 0.218-0.872 0.218-1.527 0.436-2.399 0.218-0.436 0.436-0.654 0.654-0.872 0 0 0.218 0 0.436 0v0.218c-0.218 1.09-0.654 2.399-0.872 3.489-0.218 0.436-0.218 0.872-0.436 1.309 0 0.218-0.218 0.436-0.437 0.436-0.436 0.218-0.872 0.436-1.308 0.436-0.218 0-0.436 0-0.654 0-0.436-0.218-0.872-0.654-1.309-0.872-0.218-0.218-0.436-0.436-0.654-0.654-0.218-0.436-0.436-0.872-0.654-1.309-0.218-0.436-0.436-0.654-0.873-0.872-0.218-0.218-0.436-0.218-0.654-0.436-0.436-0.436-0.872-0.654-1.527-0.655-0.218 0-0.654 0-0.872 0-0.218 0-0.654 0.218-0.872 0.437-0.436 0.218-0.654 0.218-1.091 0-1.09-0.436-2.181-0.218-3.271 0.218-0.436 0.218-0.872 0.436-1.309 0.436-1.09 0-1.963 0-3.053 0-1.09 0-1.963-0.218-3.053-0.436-0.436 0-0.872 0-1.309 0-0.872 0.218-1.09 0.872-0.872 1.744 0.218 0.872 0.436 1.963 0.436 2.836 0 0.654 0 1.309 0 1.962 0 0.436 0 0.654 0 1.091 0 0.654-0.218 1.309-0.218 1.963-0.218 1.309-0.872 2.399-1.745 3.271-0.654 0.654-1.527 1.309-2.399 1.527-0.436 0.218-0.872 0.436-1.527 0.654-1.09 0.436-1.963 1.309-2.617 2.399-0.218 0.436-0.436 0.872-0.654 1.309-0.436 0.654-0.654 1.09-1.09 1.744-0.218 0.436-0.654 0.872-0.873 1.309-0.218 0.436-0.654 0.654-0.654 1.09-0.436 0.872-0.654 1.745-1.09 2.617-0.218 0.436-0.218 1.09-0.437 1.527-0.436 0.872-0.436 1.745-0.436 2.835 0 0.218 0 0.436 0 0.873 0 1.09-0.218 2.399-0.218 3.489 0 1.09 0 2.181 0.218 3.271 0 0.436 0 1.09 0 1.527 0 0.872 0.218 1.963 0.218 2.835 0 0.872 0 1.963 0.436 2.835v0.218c0.218 0.872 0.218 1.745 0.437 2.618 0 0.218 0 0.436 0.218 0.654 0.436 1.309 0.654 2.399 1.09 3.707 0.218 0.872 0.654 1.745 0.873 2.617 0.218 0.872 1.09 1.745 1.308 2.836v0c0.654 1.309 1.309 2.617 2.181 3.925 0.218 0.436 0.654 0.872 0.872 1.309 0.436 0.654 0.654 1.309 1.091 1.745 0.218 0.436 0.654 0.872 0.872 1.09 0.218 0.436 0.436 0.872 0.873 1.309 0.436 0.436 0.872 1.09 1.308 1.526 0.654 1.09 1.527 1.963 2.399 2.617 0.436 0.436 0.872 0.654 1.309 1.091 0.218 0.218 0.436 0.218 0.436 0.436 0.218 0.218 0.436 0.436 0.872 0.654 1.745 0.872 3.053 2.181 4.58 3.49 0.654 0.654 1.309 1.309 2.181 1.744 0.872 0.654 1.527 1.309 2.617 1.527 0 0 0.218 0 0.218 0.218 0.436 0.436 1.09 0.654 1.527 0.873 0.872 0.436 1.963 0.872 2.835 1.308 0.218 0.218 0.654 0.218 0.872 0.436 0.654 0.218 1.309 0.436 1.963 0.655 0.654 0.218 1.09 0.436 1.745 0.436h0.218c0.436 0.218 0.654 0.218 1.09 0 0.218 0 0.436 0 0.437 0.218 0 0.218 0.218 0.218 0.436 0.218 0.218 0 0.436 0 0.872 0 0.218-0.218 0.218-0.436 0.436-0.872 0.218 0.218 0.436 0.218 0.437 0.218 0.218 0.436 0.654 0.436 1.09 0.436h0.218c0.436 0 0.654 0 0.872-0.218 0-0.218 0.436-0.218 0.655-0.218 0.654 0.218 1.309 0.218 1.963 0.436 0.436 0.218 1.09 0.218 1.308-0.218 0.218-0.218 0.436-0.436 0.872-0.218 0.436 0.218 0.654 0.218 1.091 0 0.218 0 0.436 0 0.436 0 0.654 0.218 1.09 0.218 1.745 0.436 0.872 0.218 0.872 0.218 1.526-0.436 0.218-0.218 0.654-0.218 0.873 0 0.218 0.436 0.218 0.654 0.218 1.09 0.218 0 0.218 0 0.436-0.218 0-0.436 0.218-0.436 0.654-0.654 0.218 0.218 0.218 0.218 0.437 0.218 0.436 0.436 0.654 0.436 0.872-0.218 0-0.218 0-0.436 0.218-0.436 0.218 0 0.436 0.218 0.436 0.218 0.218 0.436 0.654 0.654 0.873 1.09 0.436 0.436 1.09 0.436 1.308 0 0.218-0.218 0.436-0.218 0.654-0.218 0-0.218 0-0.436 0-0.654 0.654 0.436 0.436 0.436 0.218 0.436zM34.928 55.687c0.654 0.218 1.09 0.218 1.309-0.218-0.436 0.218-0.872-0.218-1.309 0.218z" fill="#000000" fill-rule="nonzero" stroke="none" stroke-width="1" stroke-linecap="butt" stroke-linejoin="miter" stroke-miterlimit="10" stroke-dasharray="" stroke-dashoffset="0" font-family="none" font-weight="none" font-size="none" text-anchor="none" style="mix-blend-mode: normal" data-fill-palette-color="tertiary"></path></g><g transform="matrix(1,0,0,1,39.325,93.67778637770898)"><svg viewBox="0 0 46.35 37.64442724458204" height="37.64442724458204" width="46.35"><g><svg viewBox="0 0 46.35 37.64442724458204" height="37.64442724458204" width="46.35"><g><svg viewBox="0 0 46.35 37.64442724458204" height="37.64442724458204" width="46.35"><g><svg viewBox="0 0 46.35 37.64442724458204" height="37.64442724458204" width="46.35"><g><svg viewBox="0 0 46.35 37.64442724458204" height="37.64442724458204" width="46.35"><g transform="matrix(1,0,0,1,0,0)"><svg width="46.35" viewBox="3.25 -35.5 48.45 36.35000000000001" height="37.64442724458204" data-palette-color="#ff4057"><svg></svg><g class="undefined-text-0" data-fill-palette-color="primary" id="text-0"><path d="M11.45 0h-8.2v-34.65h20.65l-0.85 5.85h-11.6v9.2h10.1v5.85h-10.1zM38.75-35.5c2.6 0 4.86 0.367 6.78 1.1 1.913 0.733 3.653 1.85 5.22 3.35v0l-3.8 4.45c-2.367-1.933-4.9-2.9-7.6-2.9v0c-1.433 0-2.567 0.29-3.4 0.87-0.833 0.587-1.25 1.43-1.25 2.53v0c0 0.767 0.183 1.39 0.55 1.87 0.367 0.487 1.017 0.947 1.95 1.38 0.933 0.433 2.333 0.95 4.2 1.55v0c3.533 1.133 6.133 2.523 7.8 4.17 1.667 1.653 2.5 3.997 2.5 7.03v0c0 2.167-0.55 4.073-1.65 5.72-1.1 1.653-2.683 2.937-4.75 3.85-2.067 0.92-4.517 1.38-7.35 1.38v0c-2.833 0-5.34-0.45-7.52-1.35-2.187-0.9-4.063-2.1-5.63-3.6v0l4.15-4.55c1.333 1.133 2.71 1.983 4.13 2.55 1.413 0.567 2.953 0.85 4.62 0.85v0c1.7 0 3.043-0.377 4.03-1.13 0.98-0.747 1.47-1.787 1.47-3.12v0c0-0.867-0.183-1.593-0.55-2.18-0.367-0.58-1-1.103-1.9-1.57-0.9-0.467-2.2-0.967-3.9-1.5v0c-3.833-1.167-6.557-2.6-8.17-4.3-1.62-1.7-2.43-3.85-2.43-6.45v0c0-2 0.533-3.76 1.6-5.28 1.067-1.513 2.55-2.677 4.45-3.49 1.9-0.82 4.05-1.23 6.45-1.23z" fill="#000000" fill-rule="nonzero" stroke="none" stroke-width="1" stroke-linecap="butt" stroke-linejoin="miter" stroke-miterlimit="10" stroke-dasharray="" stroke-dashoffset="0" font-family="none" font-weight="none" font-size="none" text-anchor="none" style="mix-blend-mode: normal" data-fill-palette-color="primary" opacity="1"></path></g></svg></g></svg></g></svg></g></svg></g></svg></g></svg></g></svg></g><defs></defs></svg><rect width="125" height="225" fill="none" stroke="none" visibility="hidden"></rect></g></svg></g></svg>